<?xml version="1.0" standalone="no"?>
<!DOCTYPE svg PUBLIC "-//W3C//DTD SVG 20010904//EN"
 "http://www.w3.org/TR/2001/REC-SVG-20010904/DTD/svg10.dtd">
<svg version="1.0" xmlns="http://www.w3.org/2000/svg"
 width="200.000000pt" height="200.000000pt" viewBox="0 0 200.000000 200.000000"
 preserveAspectRatio="xMidYMid meet">
<g transform="translate(0.000000,200.000000) scale(0.100000,-0.100000)"
fill="white" stroke="black">
<path d="M1285 1655 c-5 -2 -22 -6 -37 -9 -36 -8 -92 -58 -108 -96 l-12 -30
-444 0 c-442 0 -443 0 -455 -21 -8 -16 -8 -28 0 -45 l11 -24 444 0 444 0 12
-30 c17 -41 72 -87 119 -100 79 -21 177 25 202 95 l13 35 143 0 c141 0 144 0
154 24 8 17 8 29 0 45 -11 20 -19 21 -156 21 -110 0 -145 3 -145 13 0 24 -49
84 -82 99 -35 16 -86 28 -103 23z m56 -110 c55 -29 61 -97 12 -135 -56 -44
-133 -7 -133 64 0 26 7 40 31 60 35 30 49 32 90 11z"/>
<path d="M602 1159 c-28 -14 -51 -36 -68 -65 l-26 -44 -128 0 c-122 0 -130 -1
-144 -22 -20 -29 -20 -34 4 -58 18 -18 33 -20 145 -20 l124 0 15 -29 c68 -130
254 -130 322 2 l15 27 439 0 c427 0 441 1 460 20 24 24 24 29 4 58 l-15 22
-444 0 -443 0 -26 44 c-47 80 -147 108 -234 65z m146 -105 c69 -78 -45 -181
-122 -109 -30 28 -34 69 -10 103 33 48 92 50 132 6z"/>
<path d="M1065 696 c-34 -15 -80 -64 -90 -96 -6 -20 -15 -20 -361 -20 -341 0
-355 -1 -374 -20 -24 -24 -24 -29 -4 -58 l15 -22 359 0 358 0 19 -37 c63 -121
243 -121 308 0 l20 37 217 0 c213 0 217 0 232 22 20 29 20 34 -4 58 -19 19
-33 20 -234 20 l-214 0 -12 29 c-33 81 -150 124 -235 87z m114 -101 c31 -16
41 -33 41 -71 0 -37 -15 -60 -50 -74 -41 -17 -84 1 -105 46 -14 31 -14 36 0
64 24 47 66 60 114 35z"/>
</g>
</svg>
