<svg xmlns="http://www.w3.org/2000/svg" viewBox="0 0 97.6 12.1" enable-background="new 0 0 97.6 12.1"><g fill="#333"><path d="M6.1 7.8c-.2.4-.4.8-.7 1.1-.3.3-.6.5-1 .7-.4.1-.8.2-1.3.2s-.9-.1-1.3-.2c-.4-.2-.7-.4-1-.7-.2-.3-.4-.7-.6-1.1-.1-.4-.2-.9-.2-1.4 0-.5.1-1 .2-1.4.2-.4.4-.8.7-1.1.3-.3.6-.5 1-.7.4-.2.8-.2 1.2-.2s.9 0 1.3.2.7.4 1 .7c.3.3.5.6.7 1.1.2.4.2.9.2 1.4s-.1 1-.2 1.4zm-2.1-2.7c-.2-.3-.5-.5-.9-.5s-.7.2-.9.5c-.1.3-.2.7-.2 1.3 0 .5.1 1 .3 1.3.2.3.5.5.8.5.4 0 .7-.2.9-.5.2-.3.3-.7.3-1.3s-.1-1-.3-1.3zM13.3 7.8c-.2.4-.4.8-.6 1.1-.3.3-.5.5-.9.6-.3.1-.7.2-1 .2-.3 0-.6 0-.8-.1-.2 0-.4-.1-.6-.2v2.3l-2 .3v-9h1.8l.1 1 .4-.4.4-.3c.2-.1.3-.2.5-.2.2-.1.4-.1.6-.1.3 0 .7.1.9.2.3.1.5.3.7.6.2.3.4.6.5 1 .1.4.2.9.2 1.4 0 .6-.1 1.2-.2 1.6zm-2.1-2.7c-.2-.2-.4-.4-.7-.4-.2 0-.4.1-.6.2l-.5.5v2.5c.1.1.3.2.4.2h.5c.3 0 .6-.1.8-.4.2-.3.3-.7.3-1.4.1-.5 0-.9-.2-1.2zM20.3 6.7v.2h-3.9c.1.5.2.9.5 1.1.3.2.6.3 1.1.3.4 0 .7-.1 1.1-.2.4-.1.7-.3 1.1-.5l.2 1.4c-.4.2-.8.4-1.2.5-.4.1-.9.2-1.4.2-.5 0-.9-.1-1.4-.2-.4-.1-.8-.3-1.1-.6-.3-.3-.5-.6-.7-1-.2-.4-.2-.9-.2-1.5 0-.5.1-1 .2-1.4.2-.4.4-.8.6-1.1.3-.3.6-.5 1-.7.4-.2.8-.2 1.2-.2.5 0 .9.1 1.3.3.4.2.7.4.9.7.3.3.4.6.5 1 .1.4.2.9.2 1.3v.4zm-2.9-2.4c-.3 0-.5.1-.7.4-.2.2-.3.6-.3 1.1h2c-.1-1-.4-1.5-1-1.5zM25.2 9.7v-4.1c0-.2-.1-.4-.2-.6-.1-.1-.3-.2-.5-.2s-.4.1-.6.2c-.2.1-.4.2-.5.4v4.3h-2v-6.6h1.8l.1.9c.3-.3.6-.5.9-.7.4-.2.8-.3 1.2-.3.6 0 1.1.2 1.4.5.3.4.5.9.5 1.5v4.7h-2.1zM34.5 7.8c-.2.4-.4.8-.6 1.1-.3.3-.5.5-.9.6-.3.1-.7.2-1 .2-.3 0-.6 0-.8-.1-.2 0-.4-.1-.6-.2v2.3l-2 .3v-9h1.8l.1 1 .4-.4.4-.3c.2-.1.3-.2.5-.2.2-.1.4-.1.6-.1.3 0 .6 0 .9.2.3.1.5.3.7.6.2.3.4.6.5 1 .1.4.2.9.2 1.4 0 .6 0 1.2-.2 1.6zm-2.1-2.7c-.2-.2-.4-.4-.7-.4-.2 0-.4.1-.6.2-.2.1-.4.3-.5.5v2.5c.1.1.3.2.4.2h.5c.3 0 .6-.1.8-.4.2-.3.3-.7.3-1.4.1-.5 0-.9-.2-1.2zM41.6 7.8c-.2.4-.4.8-.7 1.1-.3.3-.6.5-1 .7-.4.2-.8.2-1.3.2s-.9-.1-1.3-.2c-.4-.2-.7-.4-1-.7-.3-.3-.5-.7-.7-1.1-.2-.4-.2-.9-.2-1.4 0-.5.1-1 .2-1.4.2-.4.4-.8.7-1.1.3-.3.6-.5 1-.7.5-.2.9-.2 1.4-.2.5 0 .9.1 1.3.2.4.2.7.4 1 .7s.5.7.7 1.1c.2.4.2.9.2 1.4s-.1 1-.3 1.4zm-2-2.7c-.2-.3-.5-.5-.9-.5s-.7.2-.9.5c-.2.3-.3.7-.3 1.3 0 .5.1 1 .3 1.3.2.3.5.5.9.5s.7-.2.9-.5c.2-.3.3-.7.3-1.3s-.1-1-.3-1.3zM49.8 9.7h-1.9l-1-3.7-.9 3.7h-2l-1.8-6.4 2.1-.3.9 3.9.9-3.8h1.8l.9 3.8.9-3.8h1.9l-1.8 6.6zM57.9 6.7v.2h-3.9c0 .5.2.9.5 1.1.3.2.6.3 1.1.3.4 0 .7-.1 1.1-.2.3-.1.7-.3 1-.5l.2 1.4c-.4.2-.8.4-1.2.5-.4.1-.9.2-1.4.2-.5 0-.9-.1-1.4-.2-.4-.1-.8-.3-1.1-.6-.3-.3-.5-.6-.7-1-.1-.4-.2-.9-.2-1.5 0-.5.1-1 .2-1.4.2-.4.4-.8.6-1.1.3-.3.6-.5 1-.7.5-.2.9-.2 1.3-.2.5 0 .9.1 1.3.3.4.1.7.3.9.7.2.3.4.7.5 1.1.1.4.2.9.2 1.3v.3zm-2.9-2.4c-.3 0-.5.1-.7.4-.2.2-.3.6-.3 1.1h2c-.1-1-.4-1.5-1-1.5zM62 5.4c-.4.1-.7.4-1 .6v3.6h-2v-6.5h1.8l.2 1.3c.2-.4.4-.7.7-1 .3-.2.7-.4 1.2-.4l.3 2c-.4.1-.9.2-1.2.4zM64.1 9.7v-9.4l2-.3v9.7h-2zM69.4 2c-.2.2-.5.3-.8.3-.3 0-.6-.1-.8-.3-.2-.2-.3-.5-.3-.8 0-.3.1-.6.3-.8.2-.2.5-.3.8-.3.3 0 .6.1.8.3.2.2.3.5.3.8.1.3 0 .6-.3.8zm-1.8 7.7v-6.6h2v6.6h-2zM74.7 1.7h-.4c-.5 0-.8.3-.8.8v.6h1.2l.2 1.6h-1.4v4.9h-2v-4.9h-.9v-1.6h.9v-.8c0-.8.2-1.3.7-1.7.5-.3 1.1-.5 1.8-.5h.8l.2 1.6h-.3zM79.2 9.7h-.7c-.3 0-.7 0-1-.1-.3-.1-.6-.2-.8-.4-.2-.2-.4-.4-.5-.7-.1-.3-.2-.6-.2-1v-2.8h-.9v-1.6h.9v-2l2-.3v2.3h1.2l.3 1.6h-1.5v2.5c0 .5.3.8.8.8.2 0 .3 0 .5-.1l.3 1.7c-.1.1-.3.1-.4.1zM82.5 2c-.2.2-.5.3-.8.3-.3 0-.6-.1-.8-.3-.2-.2-.3-.5-.3-.8 0-.3.1-.6.3-.8.2-.2.5-.3.8-.3.3 0 .6.1.8.3.2.2.3.5.3.8 0 .3-.1.6-.3.8zm-1.9 7.7v-6.6h2v6.6h-2zM87.9 9.7v-4.1c0-.2-.1-.4-.2-.6-.1-.1-.3-.2-.5-.2s-.4.1-.6.2c-.2.1-.4.2-.5.4v4.3h-2v-6.6h1.8l.1.9c.3-.3.6-.5.9-.7.4-.2.8-.3 1.2-.3.6 0 1.1.2 1.4.5.3.4.5.9.5 1.5v4.7h-2.1zM97.4 3l.3 1.5h-1.2c.1.2.1.5.1.7 0 .4-.1.7-.2 1-.1.3-.3.5-.6.7-.2.2-.5.3-.9.4-.3.1-.7.2-1 .2h-.6c-.1.1-.2.2-.2.3v.1s.1.1.2.1h.3c.1 0 .3 0 .5.1l1.2.1c.7.1 1.2.2 1.5.5.4.2.6.6.6 1.1 0 .4-.1.7-.3 1-.2.3-.4.5-.8.7-.3.2-.7.4-1.2.5-.4.1-.9.2-1.5.2-.5 0-.9 0-1.3-.1s-.7-.2-1-.3c-.3-.1-.5-.3-.7-.5-.2-.2-.2-.4-.2-.7 0-.3.1-.5.3-.8.2-.2.4-.4.8-.6-.2-.2-.4-.5-.4-.7 0-.4.3-.8 1-1.2-.4-.2-.7-.4-.9-.8-.2-.3-.3-.7-.3-1.1 0-.4.1-.7.2-1 .1-.3.3-.5.6-.7.2-.2.5-.4.9-.5.5-.2.8-.2 1.2-.2.4 0 .8.1 1.1.2.3.1.6.3.9.5l1.6-.7zm-5.1 7.3c0 .2.1.4.4.6.3.1.7.1 1.3.1.5 0 .9-.1 1.2-.2.3-.2.4-.3.4-.5s-.1-.3-.2-.3c-.1-.1-.4-.1-.7-.2l-1-.1c-.2 0-.4 0-.6-.1-.1 0-.3 0-.5-.1-.2.3-.3.5-.3.8zm2.3-5.8c-.2-.2-.4-.3-.7-.3-.3 0-.5.1-.7.3-.2.2-.3.5-.3.8 0 .3.1.6.2.8.2.2.4.3.7.3.3 0 .6-.1.7-.3.2-.2.2-.5.2-.8.1-.4 0-.6-.1-.8z"/></g></svg>