<svg xmlns="http://www.w3.org/2000/svg" width="1982" height="652"><g fill="none" fill-rule="nonzero"><g fill="#000"><path d="M361 449.28h72.92c6.57 0 11.45 1.21 14.55 3.78 3.08 2.54 4.58 6.71 4.58 12.66v18.9c0 5.94-1.48 10.12-4.6 12.67-3.21 2.56-7.97 3.78-14.55 3.78h-53.6v33.16H361v-84.95zm19.54 14.69v22.63h44.48c3.07 0 5.38-.28 6.71-1.12 1.5-.84 2.17-2.66 2.17-5.46v-8.96c0-2.8-.7-4.61-2.24-5.45-1.54-.7-3.64-1.12-6.71-1.12h-44.51l.1-.52zM478.7 469.37c0-3.92.42-7.28 1.08-9.85.67-2.7 1.89-4.72 3.5-6.2a13.34 13.34 0 0 1 6.47-3.1c2.65-.43 6.01-.84 9.93-.84h62.56c3.92 0 7.28.27 9.94.97 2.66.56 4.76 1.68 6.44 3.22 1.54 1.54 2.8 3.5 3.5 6.3.7 2.66 1.12 5.99 1.12 9.9v44.87c0 3.92-.42 7.28-1.12 9.85a12.95 12.95 0 0 1-3.5 6.16 13.24 13.24 0 0 1-6.58 3.08c-2.8.56-6.16.98-10.08.98h-62.4c-3.92 0-7.28-.28-9.98-.98a13.54 13.54 0 0 1-6.5-3.08c-1.6-1.54-2.8-3.5-3.5-6.21a40.02 40.02 0 0 1-1.07-9.8l.2-45.27zm85.17 49.03v-53.9H498.5v53.9h65.36zM603.86 449.28h20.48l21.55 57 22.68-57h13.85l23.05 57 20.62-57h17.66l-32.89 85.02h-13.34l-23.45-58.89-23.8 58.9h-13.71zM765.81 449.28h87.05v14.55h-67.23v19h39.21v14.55h-39.21v21.13h68.06v16.05h-87.9zM878.14 449.28h72.91c6.58 0 11.45 1.21 14.56 3.78 3.08 2.54 4.57 6.71 4.57 12.66v19.87c0 5.88-1.48 10.07-4.59 12.6-3.21 2.51-7.97 3.77-14.55 3.77h-11.2l39.19 32.19h-28.27l-34.43-32.19h-18.9v32.19h-19.3v-84.87zm19.53 14.69v23.7h44.48c3.08 0 5.39-.42 6.72-1.2 1.5-.81 2.17-2.7 2.17-5.53V470.7c0-2.83-.7-4.71-2.24-5.53-1.54-.8-3.64-1.21-6.72-1.21l-44.4.01zM998.27 449.28h19.82v69.12h63.88v16.04h-83.56v-85.16zM1104.84 449.28h19.81v85.02h-19.81zM1146.85 449.28h86.07v14.83h-66.31v22.36h35.83v15.5h-35.83v32.31h-19.8zM1300.14 534.44h-19.81V464.5h-39.08v-15.22h98.11v15.22h-39.22zM1357.51 449.28h19.82v85.02h-19.82zM1399.23 449.28h13.48l59.85 50.12c1.74 1.48 3.35 2.83 4.98 4.31 1.6 1.48 3.08 3.1 4.71 4.86-.28-3.5-.42-6.44-.56-8.96-.1-2.38-.25-4.34-.25-5.6v-44.63h17.78v85.07h-13.47l-62.53-52.61c-1.2-1.12-2.42-2.1-3.5-3.22-1.22-.98-2.3-2.24-3.5-3.64.28 3.22.54 6.16.68 8.4.14 2.38.14 4.06.14 5.32v46.03h-17.8v-85.45zM1539.34 464.5v53.9h61.86v-19h-32.38v-14.55h51.61v29.38c0 3.9-.42 7.28-1.08 9.83a11 11 0 0 1-3.5 6.2 12.76 12.76 0 0 1-6.43 3.21c-2.66.56-6.02.98-9.94.98h-58.78c-3.92 0-7.28-.28-9.94-.84a13.21 13.21 0 0 1-6.44-3.07c-1.53-1.4-2.8-3.5-3.5-6.16-.7-2.66-.97-5.88-.97-9.8v-44.91c0-3.92.42-7.28 1.12-9.8.7-2.71 1.96-4.76 3.5-6.21a13.59 13.59 0 0 1 6.43-3.08 59.4 59.4 0 0 1 10.08-.88h58.64c3.92 0 7.14.28 9.94.84 2.7.56 4.85 1.62 6.44 3.08a13.24 13.24 0 0 1 3.63 5.96c.84 2.38 1.26 5.64 1.26 9.41v1.96l-19.31 3.5v-9.61l-62.24-.34z"/></g><g fill="#C1272D"><path d="M509.35 118.52c48.88 0 85.68 10.63 110.22 31.9 24.53 21.27 36.8 54.86 36.8 100.61 0 46.04-12.27 79.77-36.69 101.04-24.44 21.27-61.23 31.9-110.31 31.9-49.27 0-86.08-10.63-110.43-31.9-24.21-21.27-36.39-54.86-36.39-101.04 0-45.75 12.32-79.34 36.67-100.6 24.35-21.28 61.16-31.91 110.29-31.91h-.16zm0 198.56c15.68 0 28.83-.84 39.67-2.52 10.84-1.68 19.62-4.9 26.3-9.8 6.67-4.89 11.62-11.6 14.56-20.14 2.94-8.54 4.48-19.73 4.48-33.59 0-13.85-1.54-25.04-4.48-33.58-2.94-8.54-7.89-15.25-14.55-20.01-6.7-4.76-15.47-7.98-26.31-9.66-10.84-1.67-24.08-2.51-39.65-2.51-15.54 0-28.7.84-39.61 2.51-10.78 1.68-19.6 4.9-26.31 9.66-6.58 4.76-11.62 11.33-14.56 20.01-2.94 8.54-4.48 19.73-4.48 33.58 0 13.86 1.54 25.05 4.48 33.59a41.47 41.47 0 0 0 14.56 20.15c6.72 4.9 15.53 8.11 26.31 9.8 10.92 1.67 24.07 2.51 39.75 2.51h-.16zM986.25 219.13c0 14.27-2.3 27.29-6.91 39.04a80.16 80.16 0 0 1-20.3 29.8c-8.95 8.26-19.73 14.56-32.75 19.18-12.87 4.62-27.57 6.85-43.94 6.85h-110.7v65.63h-65.09V248.38H888.8c10.21 0 18.05-2.66 23.5-8.12 5.6-5.32 8.4-12.6 8.4-21.55 0-8.96-2.8-16.1-8.4-21.27-5.45-5.18-13.43-7.84-23.5-7.84H706.4l43.32-66.74h132.81c16.48 0 31.13 2.37 43.92 7.13 12.98 4.76 23.8 11.34 32.61 19.73 8.96 8.4 15.65 18.61 20.3 30.37 4.61 11.75 7 24.77 7 39.04h-.12zM1302.13 313.58l-45.53 66.05h-220.38V122.86h265.28l-45.9 66.74h-148.16v30.79h181.34l-40.73 58.35H1107.4v34.98h194.82zM1579.76 383.97c-4.5 0-8.89-.84-13.15-2.52-4.39-1.68-9.14-5.46-14.5-11.33l-137.02-141.34v150.85h-62.98V166.51c0-8.4 1.08-15.67 3.15-21.82 2.1-6.16 4.9-11.2 8.54-14.98 3.5-3.78 7.41-6.71 12.03-8.4a38.55 38.55 0 0 1 14.28-2.65c4.34 0 8.53.84 12.87 2.52 4.48 1.68 9.24 5.45 14.84 11.33l137.02 141.33V122.86h63.26v212.7c0 8.39-1.12 15.67-3.08 21.82-2.1 6.16-4.9 11.2-8.4 15.12a30.99 30.99 0 0 1-12.18 8.67 41.17 41.17 0 0 1-14.41 2.8h-.27z"/></g><path fill="#C82932" d="M1756.22.21h-67.27s29.26 215.64 29.33 324.11c.04 109.61-29.33 327.54-29.33 327.54h67.27s32.85-217.82 32.76-327.54C1788.94 215.75 1756.22.21 1756.22.21zM1864.9.21h-67.27s29.4 215.64 29.4 324.11c.14 109.61-29.26 327.54-29.26 327.54h67.34s32.9-217.82 32.76-327.54c0-108.57-32.76-324.11-32.76-324.11h-.2z"/><path fill="#000" d="M1960.65 149.78h-42.92s18.62 124.91 18.62 187.76c0 63.52-18.76 189.78-18.76 189.78h42.84s20.86-126.2 20.86-189.86c-.14-62.96-21-187.77-21-187.77l.36.09z"/><g><path fill="#C82932" d="M225.78.21h67.27s-29.26 215.64-29.33 324.11c-.04 109.61 29.33 327.54 29.33 327.54h-67.27s-32.85-217.82-32.76-327.54C193.06 215.75 225.78.21 225.78.21zM117.1.21h67.27s-29.4 215.64-29.4 324.11c-.14 109.61 29.26 327.54 29.26 327.54h-67.2s-32.9-217.82-32.76-327.54C84.27 215.75 117.03.21 117.03.21h.07z"/><path fill="#000" d="M21.35 149.78h42.92S45.65 274.69 45.65 337.54c0 63.52 18.76 189.78 18.76 189.78H21.43S.57 401.12.57 337.46c0-62.96 20.86-187.77 20.86-187.77l-.08.09z"/></g></g></svg>