<svg xmlns="http://www.w3.org/2000/svg" id="Layer_1" width="2000" height="909.11"><style id="style117">.st0{fill:#FFFFFF;} .st1{fill:#C1272D;}</style><path id="rect119" stroke-width=".67" d="M0 0h2000v909.1H0z"/><g id="g3781"><g id="g177"><g id="g175"><g id="g163" fill="#fff"><path id="path139" d="M550 549.74h52.1c4.7 0 8.18.87 10.4 2.7 2.2 1.82 3.27 4.8 3.27 9.05V575c0 4.24-1.06 7.23-3.28 9.05-2.3 1.83-5.7 2.7-10.4 2.7h-38.3v23.7H550zm13.96 10.5v16.17h31.78c2.2 0 3.85-.2 4.8-.8 1.07-.6 1.55-1.9 1.55-3.9v-6.4c0-2-.5-3.3-1.6-3.9-1.1-.5-2.6-.8-4.8-.8h-31.8z" class="st0"/><path id="path141" d="M634.1 564.1c0-2.8.3-5.2.77-7.04.48-1.93 1.35-3.37 2.5-4.43 1.16-1.06 2.7-1.83 4.62-2.22 1.9-.3 4.3-.6 7.1-.6h44.7c2.8 0 5.2.2 7.1.7 1.9.4 3.4 1.2 4.6 2.3 1.1 1.1 2 2.5 2.5 4.5.5 1.9.8 4.28.8 7.08v32.06c0 2.8-.3 5.2-.8 7.04-.5 1.9-1.4 3.34-2.5 4.4-1.2 1.06-2.7 1.83-4.7 2.2-2 .4-4.4.7-7.2.7H649c-2.8 0-5.2-.2-7.13-.7-1.94-.4-3.48-1.15-4.64-2.2-1.15-1.1-2-2.5-2.5-4.44-.48-1.9-.77-4.2-.77-7zm60.85 35.04v-38.52h-46.7v38.52z" class="st0"/><path id="path143" d="M723.53 549.74h14.63l15.4 40.73 16.2-40.73h9.9l16.47 40.73 14.73-40.73h12.62l-23.5 60.76h-9.53l-16.76-42.08-17 42.08h-9.8z" class="st0"/><path id="path145" d="M839.24 549.74h62.2v10.4H853.4v13.58h28.02v10.4H853.4v15.1h48.63v11.47h-62.8z" class="st0"/><path id="path147" d="M919.5 549.74h52.1c4.7 0 8.18.87 10.4 2.7 2.2 1.82 3.27 4.8 3.27 9.05v14.2c0 4.2-1.06 7.2-3.28 9-2.3 1.8-5.7 2.7-10.4 2.7h-8l28 23h-20.2l-24.6-23h-13.5v23h-13.8zm13.96 10.5v16.94h31.78c2.2 0 3.85-.3 4.8-.86 1.07-.58 1.55-1.93 1.55-3.95v-7.32c0-2.02-.5-3.37-1.6-3.95-1.1-.58-2.6-.87-4.8-.87z" class="st0"/><path id="path149" d="M1005.34 549.74h14.16v49.4h45.64v11.46h-59.7v-60.86z" class="st0"/><path id="path151" d="M1081.48 549.74h14.16v60.76h-14.16z" class="st0"/><path id="path153" d="M1111.5 549.74h61.5v10.6h-47.38v15.98h25.6v11.07h-25.6v23.1h-14.15z" class="st0"/><path id="path155" d="M1221.03 610.6h-14.16v-49.98h-27.92v-10.88h70.1v10.88h-28.02z" class="st0"/><path id="path157" d="M1262.02 549.74h14.16v60.76h-14.16z" class="st0"/><path id="path159" d="M1291.83 549.74h9.63l42.76 35.82c1.25 1.06 2.4 2.02 3.56 3.08 1.15 1.06 2.2 2.22 3.37 3.47-.2-2.5-.3-4.6-.4-6.4-.08-1.7-.18-3.1-.18-4v-31.9h12.7v60.8h-9.62l-44.68-37.6c-.86-.8-1.73-1.5-2.5-2.3-.87-.7-1.64-1.6-2.5-2.6.2 2.3.38 4.4.48 6 .1 1.7.1 2.9.1 3.8v32.9h-12.72z" class="st0"/><path id="path161" d="M1391.94 560.62v38.52h44.2v-13.58H1413v-10.4h36.88v21c0 2.78-.3 5.2-.77 7.02-.4 1.93-1.3 3.37-2.5 4.43-1.1 1.1-2.7 1.9-4.6 2.3-1.9.4-4.3.7-7.1.7h-42c-2.8 0-5.2-.2-7.1-.6-1.9-.4-3.4-1.1-4.6-2.2-1.1-1-2-2.5-2.5-4.4-.5-1.9-.7-4.2-.7-7v-32.1c0-2.8.3-5.2.8-7 .5-1.94 1.4-3.4 2.5-4.44 1.2-1.05 2.7-1.82 4.6-2.2 2-.34 4.4-.63 7.2-.63h41.9c2.8 0 5.1.2 7.1.6 1.93.4 3.47 1.16 4.6 2.2 1.18 1.08 2.05 2.5 2.6 4.26.6 1.7.9 4.03.9 6.73v1.4l-13.8 2.5v-6.87z" class="st0"/></g><g id="g173" fill="#c1272d"><path id="path165" stroke-width=".88" d="M656 313.37c34.92 0 61.22 7.6 78.75 22.8 17.53 15.2 26.3 39.2 26.3 71.9 0 32.9-8.77 57-26.22 72.2-17.46 15.2-43.75 22.8-78.82 22.8-35.2 0-61.5-7.6-78.9-22.8-17.3-15.2-26-39.2-26-72.2 0-32.7 8.8-56.7 26.2-71.9 17.4-15.2 43.7-22.8 78.8-22.8zm0 141.9c11.2 0 20.6-.6 28.34-1.8 7.75-1.2 14.02-3.5 18.8-7 4.76-3.5 8.3-8.3 10.4-14.4 2.1-6.1 3.2-14.1 3.2-24s-1.1-17.9-3.2-24c-2.1-6.1-5.64-10.9-10.4-14.3-4.78-3.4-11.05-5.7-18.8-6.9-7.74-1.2-17.2-1.8-28.33-1.8-11.1 0-20.5.6-28.3 1.8-7.7 1.2-14 3.5-18.8 6.9-4.7 3.4-8.3 8.1-10.4 14.3-2.1 6.1-3.2 14.1-3.2 24s1.1 17.9 3.2 24c2.1 6.1 5.7 10.9 10.4 14.4 4.8 3.5 11.1 5.8 18.8 7 7.8 1.2 17.2 1.8 28.4 1.8z" class="st1"/><path id="path167" stroke-width=".91" d="M996.75 385.27c0 10.2-1.65 19.5-4.94 27.9-3.3 8.3-8.1 15.4-14.5 21.3s-14.1 10.4-23.4 13.7c-9.2 3.3-19.7 4.9-31.4 4.9h-79.1v46.9h-46.5v-93.8h130.2c7.3 0 12.9-1.9 16.8-5.8 4-3.8 6-9 6-15.4s-2-11.5-6-15.2c-3.9-3.7-9.6-5.6-16.8-5.6H796.8l30.95-47.7h94.9c11.77 0 22.24 1.7 31.38 5.1 9.27 3.4 17 8.1 23.3 14.1 6.4 6 11.18 13.3 14.5 21.7 3.3 8.4 5 17.7 5 27.9z" class="st1"/><path id="path169" stroke-width=".94" d="M1222.45 452.77l-32.53 47.2h-157.47v-183.5H1222l-32.8 47.7h-105.86v22h129.57l-29.1 41.7h-100.5v25h139.2z" class="st1"/><path id="path171" stroke-width=".93" d="M1420.82 503.07c-3.22 0-6.35-.6-9.4-1.8-3.13-1.2-6.53-3.9-10.36-8.1l-97.9-101v107.8h-45v-152.3c0-6 .77-11.2 2.25-15.6 1.5-4.4 3.5-8 6.1-10.7 2.5-2.7 5.3-4.8 8.6-6 3.3-1.3 6.7-1.9 10.2-1.9 3.1 0 6.1.6 9.2 1.8 3.2 1.2 6.6 3.9 10.6 8.1l97.9 101v-107.9h45.2v152c0 6-.8 11.2-2.2 15.6-1.5 4.4-3.5 8-6 10.8-2.4 2.8-5.4 4.9-8.7 6.2-3.5 1.3-6.9 2-10.3 2z" class="st1"/></g></g></g><g id="g21"><g id="g26"><path id="rect20-7" fill="#c82932" d="M1546.73 229.15h-48.05s20.9 154.12 20.95 231.65c.03 78.34-20.95 234.1-20.95 234.1h48.05s23.46-155.68 23.4-234.1c-.03-77.6-23.4-231.65-23.4-231.65z"/><path id="rect20-3-5" fill="#c82932" d="M1624.36 229.15h-48.05s21 154.12 21 231.65c.1 78.34-20.9 234.1-20.9 234.1h48.1s23.5-155.68 23.4-234.1c0-77.6-23.4-231.65-23.4-231.65z"/><path id="rect20-3-6-3" fill="#fff" stroke-width=".61" d="M1692.75 336.05h-30.66s13.3 89.28 13.3 134.2c0 45.4-13.4 135.64-13.4 135.64h30.6s14.9-90.2 14.9-135.7c-.1-45-15-134.2-15-134.2z"/></g></g><g id="g16"><path id="rect20" fill="#c82932" d="M453.27 229.15h48.05s-20.9 154.12-20.95 231.65c-.03 78.34 20.95 234.1 20.95 234.1h-48.05s-23.46-155.68-23.4-234.1c.03-77.6 23.4-231.65 23.4-231.65z"/><path id="rect20-3" fill="#c82932" d="M375.64 229.15h48.05s-21 154.12-21 231.65c-.1 78.34 20.9 234.1 20.9 234.1h-48s-23.5-155.68-23.4-234.1c0-77.6 23.4-231.65 23.4-231.65z"/><path id="rect20-3-6" fill="#fff" stroke-width=".61" d="M307.25 336.05h30.66s-13.3 89.28-13.3 134.2c0 45.4 13.4 135.64 13.4 135.64h-30.7s-14.9-90.2-14.9-135.7c0-45 14.9-134.2 14.9-134.2z"/></g></g></svg>
