<?xml version="1.0" encoding="UTF-8" standalone="no"?>
<!-- Generator: Adobe Illustrator 21.0.0, SVG Export Plug-In . SVG Version: 6.00 Build 0)  -->

<svg
   xmlns:dc="http://purl.org/dc/elements/1.1/"
   xmlns:cc="http://creativecommons.org/ns#"
   xmlns:rdf="http://www.w3.org/1999/02/22-rdf-syntax-ns#"
   xmlns:svg="http://www.w3.org/2000/svg"
   xmlns="http://www.w3.org/2000/svg"
   xmlns:sodipodi="http://sodipodi.sourceforge.net/DTD/sodipodi-0.dtd"
   xmlns:inkscape="http://www.inkscape.org/namespaces/inkscape"
   version="1.1"
   id="Layer_1"
   x="0px"
   y="0px"
   viewBox="0 0 2000 909.11279"
   xml:space="preserve"
   sodipodi:docname="condensed-original.svg"
   inkscape:version="0.92.2 (5c3e80d, 2017-08-06)"
   inkscape:export-filename="/home/sstangl/logo/condensed-original.svg.png"
   inkscape:export-xdpi="95.699997"
   inkscape:export-ydpi="95.699997"
   width="2000"
   height="909.11279"><metadata
     id="metadata184"><rdf:RDF><cc:Work
         rdf:about=""><dc:format>image/svg+xml</dc:format><dc:type
           rdf:resource="http://purl.org/dc/dcmitype/StillImage" /><dc:title></dc:title></cc:Work></rdf:RDF></metadata><defs
     id="defs182" /><sodipodi:namedview
     pagecolor="#ffffff"
     bordercolor="#666666"
     borderopacity="1"
     objecttolerance="10"
     gridtolerance="10"
     guidetolerance="10"
     inkscape:pageopacity="0"
     inkscape:pageshadow="2"
     inkscape:window-width="2560"
     inkscape:window-height="1311"
     id="namedview180"
     showgrid="false"
     inkscape:zoom="0.5205"
     inkscape:cx="937.54828"
     inkscape:cy="474.98274"
     inkscape:window-x="0"
     inkscape:window-y="55"
     inkscape:window-maximized="1"
     inkscape:current-layer="Layer_1"
     fit-margin-top="0"
     fit-margin-left="0"
     fit-margin-right="0"
     fit-margin-bottom="0" /><style
     type="text/css"
     id="style117">
	.st0{fill:#FFFFFF;}
	.st1{fill:#C1272D;}
</style><rect
     width="2000"
     height="909.11279"
     id="rect119"
     x="0"
     y="0"
     style="stroke-width:0.67420805" /><g
     id="g3781"
     transform="translate(-47.414749,-535.24536)"><g
       transform="translate(0.41455005,1.810541)"
       id="g177"><g
         id="g175"><g
           transform="matrix(0.96291154,0,0,0.96291154,124.4032,33.600269)"
           id="g163"><path
             style="fill:#ffffff"
             inkscape:connector-curvature="0"
             id="path139"
             d="m 490.8,1090 h 54.1 c 4.9,0 8.5,0.9 10.8,2.8 2.3,1.9 3.4,5 3.4,9.4 v 14.1 c 0,4.4 -1.1,7.5 -3.4,9.4 -2.3,1.9 -5.9,2.8 -10.8,2.8 h -39.7 v 24.6 h -14.4 z m 14.5,10.9 v 16.8 h 33 c 2.3,0 4,-0.3 5,-0.9 1.1,-0.6 1.6,-2 1.6,-4.1 v -6.7 c 0,-2.1 -0.5,-3.5 -1.6,-4.1 -1.1,-0.6 -2.7,-0.9 -5,-0.9 h -33 z"
             class="st0" /><path
             style="fill:#ffffff"
             inkscape:connector-curvature="0"
             id="path141"
             d="m 578.13689,1104.9 c 0,-2.9 0.3,-5.4 0.8,-7.3 0.5,-2 1.4,-3.5 2.6,-4.6 1.2,-1.1 2.8,-1.9 4.8,-2.3 2,-0.4 4.5,-0.7 7.4,-0.7 h 46.5 c 2.9,0 5.4,0.2 7.4,0.7 2,0.4 3.6,1.2 4.8,2.3 1.2,1.1 2.1,2.6 2.6,4.6 0.5,2 0.8,4.4 0.8,7.3 v 33.3 c 0,2.9 -0.3,5.4 -0.8,7.3 -0.5,2 -1.4,3.5 -2.6,4.6 -1.2,1.1 -2.8,1.9 -4.8,2.3 -2,0.4 -4.5,0.7 -7.4,0.7 h -46.5 c -2.9,0 -5.4,-0.2 -7.4,-0.7 -2,-0.4 -3.6,-1.2 -4.8,-2.3 -1.2,-1.1 -2.1,-2.6 -2.6,-4.6 -0.5,-2 -0.8,-4.4 -0.8,-7.3 z m 63.2,36.4 v -40 h -48.5 v 40 z"
             class="st0" /><path
             style="fill:#ffffff"
             inkscape:connector-curvature="0"
             id="path143"
             d="m 671.01067,1090 h 15.2 l 16,42.3 16.8,-42.3 h 10.3 l 17.1,42.3 15.3,-42.3 h 13.1 l -24.4,63.1 h -9.9 l -17.4,-43.7 -17.6,43.7 h -10.2 z"
             class="st0" /><path
             style="fill:#ffffff"
             inkscape:connector-curvature="0"
             id="path145"
             d="m 791.18445,1090 h 64.6 v 10.8 h -49.9 v 14.1 h 29.1 v 10.8 h -29.1 v 15.7 h 50.5 v 11.9 h -65.2 z"
             class="st0" /><path
             style="fill:#ffffff"
             inkscape:connector-curvature="0"
             id="path147"
             d="m 874.53201,1090 h 54.1 c 4.9,0 8.5,0.9 10.8,2.8 2.3,1.9 3.4,5 3.4,9.4 v 14.8 c 0,4.4 -1.1,7.5 -3.4,9.4 -2.3,1.9 -5.9,2.8 -10.8,2.8 h -8.3 l 29.1,23.9 h -21 l -25.5,-23.9 h -14 v 23.9 h -14.4 z m 14.5,10.9 v 17.6 h 33 c 2.3,0 4,-0.3 5,-0.9 1.1,-0.6 1.6,-2 1.6,-4.1 v -7.6 c 0,-2.1 -0.5,-3.5 -1.6,-4.1 -1.1,-0.6 -2.7,-0.9 -5,-0.9 z"
             class="st0" /><path
             style="fill:#ffffff"
             inkscape:connector-curvature="0"
             id="path149"
             d="m 963.67957,1090 h 14.70003 v 51.3 h 47.4001 v 11.9 H 963.77957 V 1090 Z"
             class="st0" /><path
             style="fill:#ffffff"
             inkscape:connector-curvature="0"
             id="path151"
             d="m 1042.7535,1090 h 14.7 v 63.1 h -14.7 z"
             class="st0" /><path
             style="fill:#ffffff"
             inkscape:connector-curvature="0"
             id="path153"
             d="m 1073.9118,1090 h 63.9 v 11 h -49.2 v 16.6 h 26.6 v 11.5 h -26.6 v 24 h -14.7 z"
             class="st0" /><path
             style="fill:#ffffff"
             inkscape:connector-curvature="0"
             id="path155"
             d="m 1187.6749,1153.2 h -14.7 v -51.9 h -29 V 1090 h 72.8 v 11.3 h -29.1 z"
             class="st0" /><path
             style="fill:#ffffff"
             inkscape:connector-curvature="0"
             id="path157"
             d="m 1230.2487,1090 h 14.7 v 63.1 h -14.7 z"
             class="st0" /><path
             style="fill:#ffffff"
             inkscape:connector-curvature="0"
             id="path159"
             d="m 1261.207,1090 h 10 l 44.4,37.2 c 1.3,1.1 2.5,2.1 3.7,3.2 1.2,1.1 2.3,2.3 3.5,3.6 -0.2,-2.6 -0.3,-4.8 -0.4,-6.7 -0.1,-1.8 -0.2,-3.2 -0.2,-4.2 V 1090 h 13.2 v 63.1 h -10 l -46.4,-39 c -0.9,-0.8 -1.8,-1.6 -2.6,-2.4 -0.9,-0.8 -1.7,-1.7 -2.6,-2.7 0.2,2.4 0.4,4.5 0.5,6.2 0.1,1.7 0.1,3 0.1,3.9 v 34.1 h -13.2 z"
             class="st0" /><path
             style="fill:#ffffff"
             inkscape:connector-curvature="0"
             id="path161"
             d="m 1365.1653,1101.3 v 40 h 45.9 v -14.1 h -24 v -10.8 h 38.3 v 21.8 c 0,2.9 -0.3,5.4 -0.8,7.3 -0.5,2 -1.4,3.5 -2.6,4.6 -1.2,1.1 -2.8,1.9 -4.8,2.3 -2,0.4 -4.5,0.7 -7.4,0.7 h -43.6 c -2.9,0 -5.4,-0.2 -7.4,-0.7 -2,-0.4 -3.6,-1.2 -4.8,-2.3 -1.2,-1.1 -2.1,-2.6 -2.6,-4.6 -0.5,-2 -0.8,-4.4 -0.8,-7.3 v -33.3 c 0,-2.9 0.3,-5.4 0.8,-7.3 0.5,-2 1.4,-3.5 2.6,-4.6 1.2,-1.1 2.8,-1.9 4.8,-2.3 2,-0.4 4.5,-0.7 7.4,-0.7 h 43.6 c 2.9,0 5.3,0.2 7.3,0.6 2,0.4 3.6,1.2 4.8,2.3 1.2,1.1 2.1,2.6 2.7,4.4 0.6,1.8 0.9,4.2 0.9,7 v 1.5 l -14.3,2.6 v -7.1 z"
             class="st0" /></g><g
           id="g173"><path
             style="fill:#c1272d;stroke-width:0.88470668"
             inkscape:connector-curvature="0"
             id="path165"
             d="m 703.01085,846.8 c 34.90869,0 61.20761,7.6 78.74022,22.8 17.53261,15.2 26.29892,39.2 26.29892,71.9 0,32.9 -8.76631,57 -26.22065,72.2 -17.45434,15.2 -43.75326,22.8 -78.81849,22.8 -35.22176,0 -61.52068,-7.6 -78.89675,-22.8 -17.37607,-15.2 -26.06411,-39.2 -26.06411,-72.2 0,-32.7 8.76631,-56.7 26.22065,-71.9 17.37607,-15.2 43.67499,-22.8 78.74021,-22.8 z m 0,141.9 c 11.1927,0 20.58517,-0.6 28.33396,-1.8 7.74879,-1.2 14.01044,-3.5 18.78494,-7 4.77451,-3.5 8.29668,-8.3 10.40999,-14.4 2.11331,-6.1 3.20909,-14.1 3.20909,-24 0,-9.9 -1.09578,-17.9 -3.20909,-24 -2.11331,-6.1 -5.63548,-10.9 -10.40999,-14.3 -4.7745,-3.4 -11.03615,-5.7 -18.78494,-6.9 -7.74879,-1.2 -17.21953,-1.8 -28.33396,-1.8 -11.19269,0 -20.58516,0.6 -28.33395,1.8 -7.74879,1.2 -14.01044,3.5 -18.78494,6.9 -4.77451,3.4 -8.29668,8.1 -10.40999,14.3 -2.11331,6.1 -3.2091,14.1 -3.2091,24 0,9.9 1.09579,17.9 3.2091,24 2.11331,6.1 5.63548,10.9 10.40999,14.4 4.7745,3.5 11.03615,5.8 18.78494,7 7.74879,1.2 17.21953,1.8 28.33395,1.8 z"
             class="st1" /><path
             style="fill:#c1272d;stroke-width:0.907592"
             inkscape:connector-curvature="0"
             id="path167"
             d="m 1043.75,918.7 c 0,10.2 -1.6474,19.5 -4.9423,27.9 -3.2949,8.3 -8.1549,15.4 -14.5799,21.3 -6.4251,5.9 -14.1681,10.4 -23.3938,13.7 -9.22568,3.3 -19.68697,4.9 -31.38384,4.9 h -79.07743 v 46.9 h -46.54036 v -93.8 h 130.23064 c 7.24877,0 12.85009,-1.9 16.80396,-5.8 3.95383,-3.8 6.01323,-9 6.01323,-15.4 0,-6.4 -1.977,-11.5 -6.01323,-15.2 -3.95387,-3.7 -9.63756,-5.6 -16.80396,-5.6 H 843.75 l 30.97199,-47.7 h 94.89292 c 11.77924,0 22.24053,1.7 31.38389,5.1 9.2257,3.4 16.9687,8.1 23.3113,14.1 6.3427,6 11.1203,13.3 14.4976,21.7 3.2949,8.4 4.9423,17.7 4.9423,27.9 z"
             class="st1" /><path
             style="fill:#c1272d;stroke-width:0.94402438"
             inkscape:connector-curvature="0"
             id="path169"
             d="m 1269.45,986.2 -32.5281,47.2 H 1079.45 V 849.9 h 189.5544 l -32.7955,47.7 h -105.8724 v 22 h 129.5779 l -29.1417,41.7 h -100.5253 v 25 H 1269.45 Z"
             class="st1" /><path
             style="fill:#c1272d;stroke-width:0.9329319"
             inkscape:connector-curvature="0"
             id="path171"
             d="m 1467.8205,1036.5 c -3.2203,0 -6.3536,-0.6 -9.3999,-1.8 -3.1333,-1.2 -6.5277,-3.9 -10.3573,-8.1 l -97.9157,-101 v 107.8 h -44.9977 V 881.1 c 0,-6 0.7833,-11.2 2.2629,-15.6 1.4797,-4.4 3.4815,-8 6.0055,-10.7 2.4371,-2.7 5.3092,-4.8 8.6166,-6 3.2204,-1.3 6.6148,-1.9 10.1833,-1.9 3.0462,0 6.0925,0.6 9.2258,1.8 3.1333,1.2 6.6147,3.9 10.6184,8.1 l 97.9157,101 V 849.9 h 45.1718 v 152 c 0,6 -0.7833,11.2 -2.2629,15.6 -1.4797,4.4 -3.4815,8 -6.0055,10.8 -2.4371,2.8 -5.3963,4.9 -8.7037,6.2 -3.4814,1.3 -6.8758,2 -10.3573,2 z"
             class="st1" /></g></g></g><g
       id="g21"
       transform="translate(-36.287673,368.27069)"><g
         id="g26"><path
           sodipodi:nodetypes="ccaccsc"
           inkscape:connector-curvature="0"
           id="rect20-7"
           d="m 1630.4362,396.12683 h -48.0538 c 0,0 20.9099,154.11426 20.9465,231.64394 0.037,78.34782 -20.9465,234.10826 -20.9465,234.10826 h 48.0538 c 0,0 23.4521,-155.68297 23.4108,-234.10826 -0.041,-77.60796 -23.4108,-231.64394 -23.4108,-231.64394 z"
           style="fill:#c82932;fill-opacity:1" /><path
           sodipodi:nodetypes="ccaccsc"
           inkscape:connector-curvature="0"
           id="rect20-3-5"
           d="m 1708.0615,396.12682 h -48.0538 c 0,0 20.91,154.11426 20.9466,231.64394 0.037,78.34782 -20.9466,234.10826 -20.9466,234.10826 h 48.0538 c 0,0 23.4522,-155.68297 23.4109,-234.10826 -0.041,-77.60796 -23.4109,-231.64394 -23.4109,-231.64394 z"
           style="fill:#c82932;fill-opacity:1" /><path
           sodipodi:nodetypes="ccaccsc"
           inkscape:connector-curvature="0"
           id="rect20-3-6-3"
           d="m 1776.4489,503.02021 h -30.6551 c 0,0 13.3391,89.28842 13.3625,134.20641 0.024,45.39199 -13.3625,135.63415 -13.3625,135.63415 h 30.6551 c 0,0 14.9608,-90.19727 14.9345,-135.63415 -0.026,-44.96334 -14.9345,-134.20641 -14.9345,-134.20641 z"
           style="fill:#ffffff;fill-opacity:1;stroke-width:0.60794336" /></g></g><g
       id="g16"
       transform="translate(253.01906,368.27069)"><path
         style="fill:#c82932;fill-opacity:1"
         d="m 247.66188,396.12683 h 48.0538 c 0,0 -20.90992,154.11426 -20.94653,231.64394 -0.037,78.34782 20.94653,234.10826 20.94653,234.10826 h -48.0538 c 0,0 -23.45212,-155.68297 -23.41082,-234.10826 0.0409,-77.60796 23.41082,-231.64394 23.41082,-231.64394 z"
         id="rect20"
         inkscape:connector-curvature="0"
         sodipodi:nodetypes="ccaccsc" /><path
         style="fill:#c82932;fill-opacity:1"
         d="m 170.03654,396.12682 h 48.0538 c 0,0 -20.90992,154.11426 -20.94653,231.64394 -0.037,78.34782 20.94653,234.10826 20.94653,234.10826 h -48.0538 c 0,0 -23.45212,-155.68297 -23.41082,-234.10826 0.0409,-77.60796 23.41082,-231.64394 23.41082,-231.64394 z"
         id="rect20-3"
         inkscape:connector-curvature="0"
         sodipodi:nodetypes="ccaccsc" /><path
         style="fill:#ffffff;fill-opacity:1;stroke-width:0.60794336"
         d="m 101.6492,503.02021 h 30.65503 c 0,0 -13.33909,89.28842 -13.36245,134.20641 -0.0236,45.39199 13.36245,135.63415 13.36245,135.63415 H 101.6492 c 0,0 -14.960834,-90.19727 -14.934488,-135.63415 0.02609,-44.96334 14.934488,-134.20641 14.934488,-134.20641 z"
         id="rect20-3-6"
         inkscape:connector-curvature="0"
         sodipodi:nodetypes="ccaccsc" /></g></g></svg>